<svg width="393" height="59" viewBox="0 0 393 59" fill="none" xmlns="http://www.w3.org/2000/svg">
<path d="M1.688 0.999996H21.056V3.088H4.064V32.464H18.248V34.552H4.064V52.912H21.056V55H1.688V0.999996ZM55.1857 22.6L39.2737 55.936L23.2897 22.6H25.8097L39.2737 50.68L52.6657 22.6H55.1857ZM73.9484 55.792C70.8764 55.792 68.0204 55.024 65.3804 53.488C62.7404 51.952 60.6524 49.888 59.1164 47.296C57.5804 44.656 56.8124 41.824 56.8124 38.8C56.8124 35.776 57.5804 32.968 59.1164 30.376C60.6524 27.736 62.7404 25.648 65.3804 24.112C68.0204 22.576 70.8764 21.808 73.9484 21.808C77.0684 21.808 80.0204 22.648 82.8044 24.328C85.5884 25.96 87.5324 28.096 88.6364 30.736V22.6H90.9404V55H88.6364V46.936C87.3404 49.624 85.3244 51.784 82.5884 53.416C79.9004 55 77.0204 55.792 73.9484 55.792ZM74.0924 53.776C76.7324 53.776 79.1804 53.104 81.4364 51.76C83.6924 50.368 85.4684 48.544 86.7644 46.288C88.1084 43.984 88.7804 41.488 88.7804 38.8C88.7804 36.16 88.1084 33.688 86.7644 31.384C85.4204 29.08 83.6204 27.256 81.3644 25.912C79.1084 24.52 76.6604 23.824 74.0204 23.824C71.3804 23.824 68.9084 24.52 66.6044 25.912C64.3484 27.304 62.5244 29.152 61.1324 31.456C59.7884 33.76 59.1164 36.232 59.1164 38.872C59.1164 41.512 59.7884 43.984 61.1324 46.288C62.5244 48.544 64.3724 50.368 66.6764 51.76C68.9804 53.104 71.4524 53.776 74.0924 53.776ZM100.028 22.6H102.332V29.8C103.388 27.4 105.188 25.48 107.732 24.04C110.276 22.552 113.084 21.808 116.156 21.808C120.14 21.808 123.284 23.08 125.588 25.624C127.94 28.12 129.116 31.624 129.116 36.136V55H126.812V36.136C126.812 32.248 125.852 29.224 123.932 27.064C122.06 24.904 119.42 23.824 116.012 23.824C113.516 23.824 111.212 24.4 109.1 25.552C107.036 26.656 105.38 28.192 104.132 30.16C102.932 32.128 102.332 34.36 102.332 36.856V55H100.028V22.6ZM146.056 55.792C143.752 55.792 141.712 55.408 139.936 54.64C138.16 53.824 136.888 52.792 136.12 51.544V47.728C137.032 49.792 138.28 51.328 139.864 52.336C141.448 53.296 143.464 53.776 145.912 53.776C148.264 53.776 150.16 53.056 151.6 51.616C153.04 50.128 153.76 48.232 153.76 45.928C153.76 43.96 153.352 42.448 152.536 41.392C151.72 40.288 150.4 39.184 148.576 38.08L145.84 36.496C143.872 35.296 142.384 34.36 141.376 33.688C140.416 32.968 139.648 32.176 139.072 31.312C138.496 30.4 138.208 29.344 138.208 28.144C138.208 26.224 138.88 24.688 140.224 23.536C141.568 22.384 143.32 21.808 145.48 21.808C148.12 21.808 150.328 22.408 152.104 23.608V26.776C150.616 24.808 148.48 23.824 145.696 23.824C144.16 23.824 142.912 24.208 141.952 24.976C140.992 25.744 140.512 26.728 140.512 27.928C140.512 28.984 140.8 29.92 141.376 30.736C141.952 31.504 142.744 32.224 143.752 32.896C144.808 33.568 146.536 34.576 148.936 35.92C151.384 37.312 153.184 38.752 154.336 40.24C155.488 41.68 156.064 43.576 156.064 45.928C156.064 48.904 155.08 51.304 153.112 53.128C151.192 54.904 148.84 55.792 146.056 55.792ZM235.579 0.999996V55H233.203V4.456L207.715 56.008L182.371 3.808V55H179.995V0.999996H183.379L207.715 51.112L232.267 0.999996H235.579ZM260.042 55.792C255.482 55.792 251.954 54.544 249.458 52.048C247.01 49.552 245.786 46.024 245.786 41.464V22.6H248.09V41.464C248.09 45.4 249.122 48.448 251.186 50.608C253.298 52.72 256.25 53.776 260.042 53.776C262.346 53.776 264.458 53.272 266.378 52.264C268.298 51.208 269.81 49.744 270.914 47.872C272.018 46 272.57 43.864 272.57 41.464V22.6H274.874V55H272.57V48.952C271.466 50.968 269.81 52.624 267.602 53.92C265.394 55.168 262.874 55.792 260.042 55.792ZM295.558 55.432C292.006 55.432 289.054 54.352 286.702 52.192C284.398 50.032 283.246 47.056 283.246 43.264V9.568H285.55V22.6H295.486V24.616H285.55V43.264C285.55 46.432 286.486 48.928 288.358 50.752C290.278 52.528 292.678 53.416 295.558 53.416V55.432ZM327.75 55.792L320.406 40.096L312.99 55.792L297.438 22.6H299.814L313.062 50.752L319.326 37.576L312.414 22.744H314.718L320.478 35.272L326.382 22.6H328.686L321.63 37.648L327.75 50.824L340.782 22.672H343.086L327.75 55.792ZM350.758 15.184C350.086 15.184 349.486 14.944 348.958 14.464C348.478 13.984 348.238 13.384 348.238 12.664C348.238 11.992 348.478 11.416 348.958 10.936C349.486 10.456 350.086 10.216 350.758 10.216C351.43 10.216 352.006 10.456 352.486 10.936C353.014 11.416 353.278 11.992 353.278 12.664C353.278 13.384 353.014 13.984 352.486 14.464C352.006 14.944 351.43 15.184 350.758 15.184ZM349.606 22.6H351.91V55H349.606V22.6ZM362.645 22.6H364.949V30.088C365.909 27.736 367.301 25.888 369.125 24.544C370.997 23.2 373.109 22.528 375.461 22.528C376.949 22.528 378.461 22.84 379.997 23.464V26.128C378.605 25.072 377.045 24.544 375.317 24.544C373.589 24.544 371.909 25.072 370.277 26.128C368.693 27.184 367.397 28.6 366.389 30.376C365.429 32.152 364.949 34.048 364.949 36.064V55H362.645V22.6ZM388.516 15.184C387.844 15.184 387.244 14.944 386.716 14.464C386.236 13.984 385.996 13.384 385.996 12.664C385.996 11.992 386.236 11.416 386.716 10.936C387.244 10.456 387.844 10.216 388.516 10.216C389.188 10.216 389.764 10.456 390.244 10.936C390.772 11.416 391.036 11.992 391.036 12.664C391.036 13.384 390.772 13.984 390.244 14.464C389.764 14.944 389.188 15.184 388.516 15.184ZM387.364 22.6H389.668V55H387.364V22.6Z" fill="black"/>
<path d="M1.688 0.999996V-3.8147e-06H0.688V0.999996H1.688ZM21.056 0.999996H22.056V-3.8147e-06H21.056V0.999996ZM21.056 3.088V4.088H22.056V3.088H21.056ZM4.064 3.088V2.088H3.064V3.088H4.064ZM4.064 32.464H3.064V33.464H4.064V32.464ZM18.248 32.464H19.248V31.464H18.248V32.464ZM18.248 34.552V35.552H19.248V34.552H18.248ZM4.064 34.552V33.552H3.064V34.552H4.064ZM4.064 52.912H3.064V53.912H4.064V52.912ZM21.056 52.912H22.056V51.912H21.056V52.912ZM21.056 55V56H22.056V55H21.056ZM1.688 55H0.688V56H1.688V55ZM1.688 2H21.056V-3.8147e-06H1.688V2ZM20.056 0.999996V3.088H22.056V0.999996H20.056ZM21.056 2.088H4.064V4.088H21.056V2.088ZM3.064 3.088V32.464H5.064V3.088H3.064ZM4.064 33.464H18.248V31.464H4.064V33.464ZM17.248 32.464V34.552H19.248V32.464H17.248ZM18.248 33.552H4.064V35.552H18.248V33.552ZM3.064 34.552V52.912H5.064V34.552H3.064ZM4.064 53.912H21.056V51.912H4.064V53.912ZM20.056 52.912V55H22.056V52.912H20.056ZM21.056 54H1.688V56H21.056V54ZM2.688 55V0.999996H0.688V55H2.688ZM55.1857 22.6L56.0882 23.0308L56.7711 21.6H55.1857V22.6ZM39.2737 55.936L38.372 56.3684L39.2757 58.2532L40.1762 56.3668L39.2737 55.936ZM23.2897 22.6V21.6H21.7012L22.388 23.0323L23.2897 22.6ZM25.8097 22.6L26.7114 22.1676L26.4392 21.6H25.8097V22.6ZM39.2737 50.68L38.372 51.1124L39.2761 52.998L40.1763 51.1105L39.2737 50.68ZM52.6657 22.6V21.6H52.0347L51.7631 22.1695L52.6657 22.6ZM54.2832 22.1692L38.3712 55.5052L40.1762 56.3668L56.0882 23.0308L54.2832 22.1692ZM40.1754 55.5036L24.1914 22.1676L22.388 23.0323L38.372 56.3684L40.1754 55.5036ZM23.2897 23.6H25.8097V21.6H23.2897V23.6ZM24.908 23.0324L38.372 51.1124L40.1754 50.2476L26.7114 22.1676L24.908 23.0324ZM40.1763 51.1105L53.5683 23.0305L51.7631 22.1695L38.3711 50.2495L40.1763 51.1105ZM52.6657 23.6H55.1857V21.6H52.6657V23.6ZM65.3804 53.488L64.8775 54.3523L65.3804 53.488ZM59.1164 47.296L58.2521 47.7989L58.2561 47.8058L59.1164 47.296ZM59.1164 30.376L59.9768 30.8858L59.9808 30.8789L59.1164 30.376ZM65.3804 24.112L64.8775 23.2477L65.3804 24.112ZM82.8044 24.328L82.2877 25.1843L82.2987 25.1907L82.8044 24.328ZM88.6364 30.736L87.7139 31.1218L89.6364 30.736H88.6364ZM88.6364 22.6V21.6H87.6364V22.6H88.6364ZM90.9404 22.6H91.9404V21.6H90.9404V22.6ZM90.9404 55V56H91.9404V55H90.9404ZM88.6364 55H87.6364V56H88.6364V55ZM88.6364 46.936H89.6364L87.7357 46.5017L88.6364 46.936ZM82.5884 53.416L83.0961 54.2775L83.1007 54.2748L82.5884 53.416ZM81.4364 51.76L81.9482 52.6191L81.9549 52.6151L81.9615 52.611L81.4364 51.76ZM86.7644 46.288L85.9006 45.7841L85.8973 45.7899L86.7644 46.288ZM86.7644 31.384L85.9007 31.8879L86.7644 31.384ZM81.3644 25.912L80.8393 26.763L80.846 26.7671L80.8526 26.7711L81.3644 25.912ZM66.6044 25.912L66.0873 25.056L66.0793 25.061L66.6044 25.912ZM61.1324 31.456L60.2765 30.9389L60.2725 30.9455L60.2687 30.9521L61.1324 31.456ZM61.1324 46.288L60.2687 46.7919L60.2749 46.8026L60.2814 46.8131L61.1324 46.288ZM66.6764 51.76L66.1593 52.6159L66.1659 52.6199L66.1726 52.6238L66.6764 51.76ZM73.9484 54.792C71.052 54.792 68.3697 54.0703 65.8833 52.6236L64.8775 54.3523C67.6712 55.9777 70.7008 56.792 73.9484 56.792V54.792ZM65.8833 52.6236C63.3886 51.1722 61.4245 49.2294 59.9767 46.7862L58.2561 47.8058C59.8803 50.5466 62.0922 52.7318 64.8775 54.3523L65.8833 52.6236ZM59.9808 46.7931C58.5327 44.3042 57.8124 41.6455 57.8124 38.8H55.8124C55.8124 42.0025 56.6282 45.0078 58.2521 47.7989L59.9808 46.7931ZM57.8124 38.8C57.8124 35.9547 58.5325 33.3229 59.9767 30.8858L58.2561 29.8662C56.6283 32.6131 55.8124 35.5973 55.8124 38.8H57.8124ZM59.9808 30.8789C61.4296 28.3887 63.3931 26.4252 65.8833 24.9763L64.8775 23.2477C62.0878 24.8708 59.8752 27.0833 58.2521 29.8731L59.9808 30.8789ZM65.8833 24.9763C68.3697 23.5297 71.052 22.808 73.9484 22.808V20.808C70.7008 20.808 67.6712 21.6223 64.8775 23.2477L65.8833 24.9763ZM73.9484 22.808C76.8785 22.808 79.6528 23.5941 82.2878 25.1842L83.3211 23.4718C80.3881 21.7019 77.2584 20.808 73.9484 20.808V22.808ZM82.2987 25.1907C84.9208 26.7278 86.704 28.707 87.7139 31.1218L89.559 30.3502C88.3609 27.485 86.2561 25.1922 83.3102 23.4653L82.2987 25.1907ZM89.6364 30.736V22.6H87.6364V30.736H89.6364ZM88.6364 23.6H90.9404V21.6H88.6364V23.6ZM89.9404 22.6V55H91.9404V22.6H89.9404ZM90.9404 54H88.6364V56H90.9404V54ZM89.6364 55V46.936H87.6364V55H89.6364ZM87.7357 46.5017C86.5306 49.0011 84.6558 51.0184 82.0762 52.5572L83.1007 54.2748C85.9931 52.5496 88.1503 50.2469 89.5372 47.3703L87.7357 46.5017ZM82.0807 52.5545C79.5441 54.0493 76.839 54.792 73.9484 54.792V56.792C77.2019 56.792 80.2568 55.9507 83.0961 54.2775L82.0807 52.5545ZM74.0924 54.776C76.9116 54.776 79.5366 54.0558 81.9482 52.6191L80.9246 50.9009C78.8243 52.1522 76.5533 52.776 74.0924 52.776V54.776ZM81.9615 52.611C84.3563 51.1334 86.2511 49.1892 87.6315 46.7861L85.8973 45.7899C84.6858 47.8988 83.0285 49.6026 80.9113 50.909L81.9615 52.611ZM87.6282 46.7919C89.0622 44.3337 89.7804 41.6636 89.7804 38.8H87.7804C87.7804 41.3124 87.1547 43.6343 85.9007 45.7841L87.6282 46.7919ZM89.7804 38.8C89.7804 35.981 89.0605 33.3354 87.6282 30.8801L85.9007 31.8879C87.1564 34.0406 87.7804 36.339 87.7804 38.8H89.7804ZM87.6282 30.8801C86.2003 28.4322 84.2801 26.485 81.8762 25.0529L80.8526 26.7711C82.9607 28.027 84.6406 29.7278 85.9007 31.8879L87.6282 30.8801ZM81.8895 25.061C79.4764 23.572 76.8467 22.824 74.0204 22.824V24.824C76.4742 24.824 78.7405 25.468 80.8393 26.763L81.8895 25.061ZM74.0204 22.824C71.1944 22.824 68.5441 23.5718 66.0873 25.0561L67.1216 26.7679C69.2728 25.4682 71.5665 24.824 74.0204 24.824V22.824ZM66.0793 25.061C63.6859 26.5377 61.7494 28.5011 60.2765 30.9389L61.9883 31.9731C63.2995 29.8029 65.0109 28.0703 67.1295 26.763L66.0793 25.061ZM60.2687 30.9521C58.8364 33.4074 58.1164 36.053 58.1164 38.872H60.1164C60.1164 36.411 60.7405 34.1126 61.9962 31.9599L60.2687 30.9521ZM58.1164 38.872C58.1164 41.691 58.8364 44.3366 60.2687 46.7919L61.9962 45.7841C60.7405 43.6314 60.1164 41.333 60.1164 38.872H58.1164ZM60.2814 46.8131C61.7582 49.2065 63.7215 51.1431 66.1593 52.6159L67.1936 50.9041C65.0234 49.5929 63.2907 47.8815 61.9835 45.7629L60.2814 46.8131ZM66.1726 52.6238C68.6278 54.056 71.2735 54.776 74.0924 54.776V52.776C71.6314 52.776 69.333 52.152 67.1803 50.8962L66.1726 52.6238ZM100.028 22.6V21.6H99.0282V22.6H100.028ZM102.332 22.6H103.332V21.6H102.332V22.6ZM102.332 29.8H101.332L103.248 30.2027L102.332 29.8ZM107.732 24.04L108.225 24.9103L108.231 24.9068L108.237 24.9032L107.732 24.04ZM125.588 25.624L124.847 26.2953L124.854 26.3026L124.86 26.3098L125.588 25.624ZM129.116 55V56H130.116V55H129.116ZM126.812 55H125.812V56H126.812V55ZM123.932 27.064L123.176 27.719L123.185 27.7284L123.932 27.064ZM109.1 25.552L109.572 26.4338L109.579 26.4299L109.1 25.552ZM104.132 30.16L103.288 29.6245L103.283 29.6319L103.278 29.6394L104.132 30.16ZM102.332 55V56H103.332V55H102.332ZM100.028 55H99.0282V56H100.028V55ZM100.028 23.6H102.332V21.6H100.028V23.6ZM101.332 22.6V29.8H103.332V22.6H101.332ZM103.248 30.2027C104.207 28.0226 105.846 26.2569 108.225 24.9103L107.24 23.1697C104.531 24.7031 102.57 26.7774 101.417 29.3973L103.248 30.2027ZM108.237 24.9032C110.621 23.5087 113.254 22.808 116.156 22.808V20.808C112.915 20.808 109.931 21.5953 107.227 23.1768L108.237 24.9032ZM116.156 22.808C119.908 22.808 122.764 23.9949 124.847 26.2953L126.329 24.9527C123.805 22.1651 120.373 20.808 116.156 20.808V22.808ZM124.86 26.3098C126.988 28.5677 128.116 31.7962 128.116 36.136H130.116C130.116 31.4518 128.892 27.6723 126.316 24.9382L124.86 26.3098ZM128.116 36.136V55H130.116V36.136H128.116ZM129.116 54H126.812V56H129.116V54ZM127.812 55V36.136H125.812V55H127.812ZM127.812 36.136C127.812 32.0887 126.811 28.7979 124.68 26.3996L123.185 27.7284C124.893 29.6501 125.812 32.4073 125.812 36.136H127.812ZM124.688 26.4091C122.589 23.9875 119.649 22.824 116.012 22.824V24.824C119.191 24.824 121.531 25.8205 123.176 27.7189L124.688 26.4091ZM116.012 22.824C113.355 22.824 110.886 23.4389 108.621 24.6741L109.579 26.4299C111.539 25.3611 113.677 24.824 116.012 24.824V22.824ZM108.629 24.6702C106.413 25.8552 104.628 27.5101 103.288 29.6245L104.977 30.6955C106.132 28.8739 107.659 27.4568 109.572 26.4338L108.629 24.6702ZM103.278 29.6394C101.975 31.7772 101.332 34.1921 101.332 36.856H103.332C103.332 34.5279 103.889 32.4788 104.986 30.6806L103.278 29.6394ZM101.332 36.856V55H103.332V36.856H101.332ZM102.332 54H100.028V56H102.332V54ZM101.028 55V22.6H99.0282V55H101.028ZM139.936 54.64L139.518 55.5487L139.529 55.5534L139.539 55.5579L139.936 54.64ZM136.12 51.544H135.12V51.827L135.268 52.0681L136.12 51.544ZM136.12 47.728L137.035 47.3238L135.12 47.728H136.12ZM139.864 52.336L139.327 53.1797L139.336 53.1855L139.346 53.1912L139.864 52.336ZM151.6 51.616L152.307 52.3231L152.313 52.3173L152.318 52.3114L151.6 51.616ZM152.536 41.392L151.732 41.9864L151.738 41.995L151.745 42.0034L152.536 41.392ZM148.576 38.08L149.094 37.2245L149.085 37.2195L149.077 37.2146L148.576 38.08ZM145.84 36.496L145.319 37.3498L145.329 37.3557L145.339 37.3614L145.84 36.496ZM141.376 33.688L140.776 34.488L140.798 34.5047L140.821 34.5201L141.376 33.688ZM139.072 31.312L138.226 31.846L138.233 31.8564L138.24 31.8667L139.072 31.312ZM140.224 23.536L140.875 24.2953L140.224 23.536ZM152.104 23.608H153.104V23.0768L152.664 22.7794L152.104 23.608ZM152.104 26.776L151.306 27.3791L153.104 29.7567V26.776H152.104ZM141.952 24.976L141.327 24.1951L141.952 24.976ZM141.376 30.736L140.559 31.3127L140.567 31.3245L140.576 31.336L141.376 30.736ZM143.752 32.896L143.197 33.7281L143.206 33.734L143.215 33.7397L143.752 32.896ZM148.936 35.92L149.43 35.0507L149.424 35.0475L148.936 35.92ZM154.336 40.24L153.545 40.8522L153.55 40.8585L153.555 40.8647L154.336 40.24ZM153.112 53.128L153.791 53.8621L153.792 53.8614L153.112 53.128ZM146.056 54.792C143.863 54.792 141.962 54.4266 140.333 53.7221L139.539 55.5579C141.462 56.3894 143.641 56.792 146.056 56.792V54.792ZM140.353 53.7313C138.698 52.9708 137.607 52.0519 136.972 51.0199L135.268 52.0681C136.169 53.5321 137.622 54.6772 139.518 55.5487L140.353 53.7313ZM137.12 51.544V47.728H135.12V51.544H137.12ZM135.205 48.1322C136.181 50.3398 137.545 52.0459 139.327 53.1797L140.401 51.4923C139.014 50.6101 137.883 49.2442 137.035 47.3238L135.205 48.1322ZM139.346 53.1912C141.128 54.2718 143.338 54.776 145.912 54.776V52.776C143.589 52.776 141.767 52.3203 140.382 51.4808L139.346 53.1912ZM145.912 54.776C148.485 54.776 150.65 53.9799 152.307 52.3231L150.893 50.9089C149.67 52.1321 148.043 52.776 145.912 52.776V54.776ZM152.318 52.3114C153.96 50.6152 154.76 48.4597 154.76 45.928H152.76C152.76 48.0043 152.12 49.6408 150.881 50.9206L152.318 52.3114ZM154.76 45.928C154.76 43.8396 154.329 42.0775 153.327 40.7806L151.745 42.0034C152.374 42.8185 152.76 44.0804 152.76 45.928H154.76ZM153.34 40.7976C152.416 39.5471 150.974 38.3627 149.094 37.2245L148.058 38.9355C149.826 40.0053 151.024 41.0289 151.732 41.9864L153.34 40.7976ZM149.077 37.2146L146.341 35.6306L145.339 37.3614L148.075 38.9454L149.077 37.2146ZM146.36 35.6422C144.396 34.4442 142.921 33.5165 141.931 32.8559L140.821 34.5201C141.846 35.2035 143.348 36.1478 145.319 37.3498L146.36 35.6422ZM141.976 32.888C141.093 32.2256 140.408 31.5136 139.904 30.7573L138.24 31.8667C138.888 32.8384 139.739 33.7104 140.776 34.488L141.976 32.888ZM139.917 30.778C139.453 30.0434 139.208 29.1769 139.208 28.144H137.208C137.208 29.5111 137.538 30.7566 138.226 31.846L139.917 30.778ZM139.208 28.144C139.208 26.488 139.773 25.2398 140.875 24.2953L139.573 22.7767C137.987 24.1362 137.208 25.96 137.208 28.144H139.208ZM140.875 24.2953C142 23.3309 143.504 22.808 145.48 22.808V20.808C143.136 20.808 141.136 21.4371 139.573 22.7767L140.875 24.2953ZM145.48 22.808C147.967 22.808 149.968 23.3718 151.544 24.4366L152.664 22.7794C150.688 21.4442 148.273 20.808 145.48 20.808V22.808ZM151.104 23.608V26.776H153.104V23.608H151.104ZM152.902 26.1729C151.198 23.9203 148.747 22.824 145.696 22.824V24.824C148.213 24.824 150.033 25.6956 151.306 27.3791L152.902 26.1729ZM145.696 22.824C143.991 22.824 142.505 23.2529 141.327 24.1951L142.577 25.7569C143.319 25.1631 144.329 24.824 145.696 24.824V22.824ZM141.327 24.1951C140.137 25.1475 139.512 26.4157 139.512 27.928H141.512C141.512 27.0403 141.847 26.3405 142.577 25.7569L141.327 24.1951ZM139.512 27.928C139.512 29.178 139.857 30.318 140.559 31.3127L142.193 30.1593C141.743 29.522 141.512 28.79 141.512 27.928H139.512ZM140.576 31.336C141.235 32.2149 142.118 33.0089 143.197 33.7281L144.307 32.0639C143.369 31.4391 142.669 30.7931 142.176 30.136L140.576 31.336ZM143.215 33.7397C144.296 34.4279 146.045 35.4475 148.447 36.7925L149.424 35.0475C147.026 33.7045 145.319 32.7081 144.289 32.0523L143.215 33.7397ZM148.442 36.7893C150.826 38.1454 152.504 39.5071 153.545 40.8522L155.127 39.6278C153.864 37.9969 151.941 36.4786 149.43 35.0507L148.442 36.7893ZM153.555 40.8647C154.53 42.0834 155.064 43.7395 155.064 45.928H157.064C157.064 43.4125 156.446 41.2766 155.117 39.6153L153.555 40.8647ZM155.064 45.928C155.064 48.6593 154.172 50.7816 152.432 52.3946L153.792 53.8614C155.987 51.8264 157.064 49.1487 157.064 45.928H155.064ZM152.433 52.3939C150.71 53.9873 148.606 54.792 146.056 54.792V56.792C149.074 56.792 151.673 55.8207 153.791 53.8621L152.433 52.3939ZM235.579 0.999996H236.579V-3.8147e-06H235.579V0.999996ZM235.579 55V56H236.579V55H235.579ZM233.203 55H232.203V56H233.203V55ZM233.203 4.456H234.203L232.307 4.0128L233.203 4.456ZM207.715 56.008L206.816 56.4448L207.707 58.2808L208.612 56.4512L207.715 56.008ZM182.371 3.808L183.271 3.37124L181.371 3.808H182.371ZM182.371 55V56H183.371V55H182.371ZM179.995 55H178.995V56H179.995V55ZM179.995 0.999996V-3.8147e-06H178.995V0.999996H179.995ZM183.379 0.999996L184.279 0.563152L184.005 -3.8147e-06H183.379V0.999996ZM207.715 51.112L206.816 51.5488L207.711 53.393L208.613 51.552L207.715 51.112ZM232.267 0.999996V-3.8147e-06H231.644L231.369 0.560022L232.267 0.999996ZM234.579 0.999996V55H236.579V0.999996H234.579ZM235.579 54H233.203V56H235.579V54ZM234.203 55V4.456H232.203V55H234.203ZM232.307 4.0128L206.819 55.5648L208.612 56.4512L234.1 4.8992L232.307 4.0128ZM208.615 55.5712L183.271 3.37124L181.472 4.24476L206.816 56.4448L208.615 55.5712ZM181.371 3.808V55H183.371V3.808H181.371ZM182.371 54H179.995V56H182.371V54ZM180.995 55V0.999996H178.995V55H180.995ZM179.995 2H183.379V-3.8147e-06H179.995V2ZM182.48 1.43684L206.816 51.5488L208.615 50.6752L184.279 0.563152L182.48 1.43684ZM208.613 51.552L233.165 1.43997L231.369 0.560022L206.817 50.672L208.613 51.552ZM232.267 2H235.579V-3.8147e-06H232.267V2ZM249.458 52.048L248.744 52.7482L248.751 52.7551L249.458 52.048ZM245.786 22.6V21.6H244.786V22.6H245.786ZM248.09 22.6H249.09V21.6H248.09V22.6ZM251.186 50.608L250.463 51.2989L250.471 51.3071L250.479 51.3151L251.186 50.608ZM266.378 52.264L266.843 53.1494L266.851 53.1449L266.86 53.1402L266.378 52.264ZM272.57 22.6V21.6H271.57V22.6H272.57ZM274.874 22.6H275.874V21.6H274.874V22.6ZM274.874 55V56H275.874V55H274.874ZM272.57 55H271.57V56H272.57V55ZM272.57 48.952H273.57L271.693 48.4717L272.57 48.952ZM267.602 53.92L268.094 54.7906L268.101 54.7865L268.108 54.7824L267.602 53.92ZM260.042 54.792C255.666 54.792 252.423 53.599 250.165 51.3409L248.751 52.7551C251.485 55.489 255.298 56.792 260.042 56.792V54.792ZM250.172 51.3478C247.958 49.0905 246.786 45.8449 246.786 41.464H244.786C244.786 46.2031 246.062 50.0135 248.744 52.7482L250.172 51.3478ZM246.786 41.464V22.6H244.786V41.464H246.786ZM245.786 23.6H248.09V21.6H245.786V23.6ZM247.09 22.6V41.464H249.09V22.6H247.09ZM247.09 41.464C247.09 45.5732 248.171 48.8997 250.463 51.2989L251.909 49.9171C250.073 47.9963 249.09 45.2268 249.09 41.464H247.09ZM250.479 51.3151C252.826 53.6618 256.06 54.776 260.042 54.776V52.776C256.44 52.776 253.77 51.7782 251.893 49.9009L250.479 51.3151ZM260.042 54.776C262.498 54.776 264.771 54.2374 266.843 53.1494L265.913 51.3786C264.145 52.3066 262.194 52.776 260.042 52.776V54.776ZM266.86 53.1402C268.936 51.9985 270.579 50.4079 271.775 48.38L270.053 47.364C269.041 49.0801 267.66 50.4175 265.896 51.3878L266.86 53.1402ZM271.775 48.38C272.979 46.3384 273.57 44.0235 273.57 41.464H271.57C271.57 43.7045 271.057 45.6616 270.053 47.364L271.775 48.38ZM273.57 41.464V22.6H271.57V41.464H273.57ZM272.57 23.6H274.874V21.6H272.57V23.6ZM273.874 22.6V55H275.874V22.6H273.874ZM274.874 54H272.57V56H274.874V54ZM273.57 55V48.952H271.57V55H273.57ZM271.693 48.4717C270.685 50.3116 269.166 51.8424 267.096 53.0576L268.108 54.7824C270.454 53.4056 272.247 51.6244 273.447 49.4323L271.693 48.4717ZM267.11 53.0494C265.069 54.203 262.722 54.792 260.042 54.792V56.792C263.026 56.792 265.719 56.133 268.094 54.7906L267.11 53.0494ZM295.558 55.432V56.432H296.558V55.432H295.558ZM286.702 52.192L286.018 52.9216L286.025 52.9285L286.702 52.192ZM283.246 9.568V8.568H282.246V9.568H283.246ZM285.55 9.568H286.55V8.568H285.55V9.568ZM285.55 22.6H284.55V23.6H285.55V22.6ZM295.486 22.6H296.486V21.6H295.486V22.6ZM295.486 24.616V25.616H296.486V24.616H295.486ZM285.55 24.616V23.616H284.55V24.616H285.55ZM288.358 50.752L287.66 51.4682L287.669 51.4773L287.679 51.4861L288.358 50.752ZM295.558 53.416H296.558V52.416H295.558V53.416ZM295.558 54.432C292.226 54.432 289.524 53.4265 287.378 51.4555L286.025 52.9285C288.583 55.2775 291.786 56.432 295.558 56.432V54.432ZM287.386 51.4625C285.323 49.529 284.246 46.8396 284.246 43.264H282.246C282.246 47.2724 283.472 50.535 286.018 52.9215L287.386 51.4625ZM284.246 43.264V9.568H282.246V43.264H284.246ZM283.246 10.568H285.55V8.568H283.246V10.568ZM284.55 9.568V22.6H286.55V9.568H284.55ZM285.55 23.6H295.486V21.6H285.55V23.6ZM294.486 22.6V24.616H296.486V22.6H294.486ZM295.486 23.616H285.55V25.616H295.486V23.616ZM284.55 24.616V43.264H286.55V24.616H284.55ZM284.55 43.264C284.55 46.6404 285.555 49.4171 287.66 51.4682L289.056 50.0358C287.417 48.4389 286.55 46.2236 286.55 43.264H284.55ZM287.679 51.4861C289.803 53.4509 292.454 54.416 295.558 54.416V52.416C292.902 52.416 290.753 51.6051 289.037 50.0179L287.679 51.4861ZM294.558 53.416V55.432H296.558V53.416H294.558ZM327.75 55.792L326.844 56.2158L327.755 58.1617L328.658 56.2122L327.75 55.792ZM320.406 40.096L321.312 39.6722L320.411 37.7458L319.502 39.6688L320.406 40.096ZM312.99 55.792L312.085 56.2163L312.986 58.1409L313.894 56.2192L312.99 55.792ZM297.438 22.6V21.6H295.865L296.533 23.0243L297.438 22.6ZM299.814 22.6L300.719 22.1742L300.449 21.6H299.814V22.6ZM313.062 50.752L312.157 51.1778L313.058 53.0907L313.965 51.1814L313.062 50.752ZM319.326 37.576L320.229 38.0054L320.431 37.5802L320.233 37.1536L319.326 37.576ZM312.414 22.744V21.744H310.845L311.508 23.1664L312.414 22.744ZM314.718 22.744L315.627 22.3263L315.359 21.744H314.718V22.744ZM320.478 35.272L319.57 35.6897L320.472 37.6528L321.385 35.6943L320.478 35.272ZM326.382 22.6V21.6H325.745L325.476 22.1777L326.382 22.6ZM328.686 22.6L329.592 23.0245L330.259 21.6H328.686V22.6ZM321.63 37.648L320.725 37.2235L320.527 37.646L320.723 38.0693L321.63 37.648ZM327.75 50.824L326.843 51.2453L327.752 53.2011L328.658 51.2441L327.75 50.824ZM340.782 22.672V21.672H340.143L339.875 22.2519L340.782 22.672ZM343.086 22.672L343.994 23.0922L344.651 21.672H343.086V22.672ZM328.656 55.3682L321.312 39.6722L319.5 40.5198L326.844 56.2158L328.656 55.3682ZM319.502 39.6688L312.086 55.3648L313.894 56.2192L321.31 40.5232L319.502 39.6688ZM313.896 55.3677L298.344 22.1757L296.533 23.0243L312.085 56.2163L313.896 55.3677ZM297.438 23.6H299.814V21.6H297.438V23.6ZM298.909 23.0258L312.157 51.1778L313.967 50.3262L300.719 22.1742L298.909 23.0258ZM313.965 51.1814L320.229 38.0054L318.423 37.1466L312.159 50.3226L313.965 51.1814ZM320.233 37.1536L313.321 22.3216L311.508 23.1664L318.42 37.9984L320.233 37.1536ZM312.414 23.744H314.718V21.744H312.414V23.744ZM313.81 23.1617L319.57 35.6897L321.387 34.8543L315.627 22.3263L313.81 23.1617ZM321.385 35.6943L327.289 23.0223L325.476 22.1777L319.572 34.8497L321.385 35.6943ZM326.382 23.6H328.686V21.6H326.382V23.6ZM327.781 22.1755L320.725 37.2235L322.536 38.0725L329.592 23.0245L327.781 22.1755ZM320.723 38.0693L326.843 51.2453L328.657 50.4027L322.537 37.2267L320.723 38.0693ZM328.658 51.2441L341.69 23.0921L339.875 22.2519L326.843 50.4039L328.658 51.2441ZM340.782 23.672H343.086V21.672H340.782V23.672ZM342.179 22.2518L326.843 55.3718L328.658 56.2122L343.994 23.0922L342.179 22.2518ZM348.958 14.464L348.251 15.1711L348.268 15.1879L348.285 15.2039L348.958 14.464ZM348.958 10.936L348.285 10.1961L348.268 10.2121L348.251 10.2289L348.958 10.936ZM352.486 10.936L351.779 11.6431L351.796 11.6599L351.813 11.6759L352.486 10.936ZM352.486 14.464L351.813 13.7241L351.796 13.7401L351.779 13.7569L352.486 14.464ZM349.606 22.6V21.6H348.606V22.6H349.606ZM351.91 22.6H352.91V21.6H351.91V22.6ZM351.91 55V56H352.91V55H351.91ZM349.606 55H348.606V56H349.606V55ZM350.758 14.184C350.351 14.184 349.987 14.048 349.631 13.7241L348.285 15.2039C348.985 15.84 349.821 16.184 350.758 16.184V14.184ZM349.665 13.7569C349.385 13.4767 349.238 13.1366 349.238 12.664H347.238C347.238 13.6314 347.571 14.4913 348.251 15.1711L349.665 13.7569ZM349.238 12.664C349.238 12.2602 349.371 11.9377 349.665 11.6431L348.251 10.2289C347.586 10.8943 347.238 11.7238 347.238 12.664H349.238ZM349.631 11.6759C349.987 11.352 350.351 11.216 350.758 11.216V9.216C349.821 9.216 348.985 9.56004 348.285 10.1961L349.631 11.6759ZM350.758 11.216C351.162 11.216 351.484 11.3485 351.779 11.6431L353.193 10.2289C352.528 9.56349 351.698 9.216 350.758 9.216V11.216ZM351.813 11.6759C352.147 11.9796 352.278 12.2928 352.278 12.664H354.278C354.278 11.6912 353.881 10.8524 353.159 10.1961L351.813 11.6759ZM352.278 12.664C352.278 13.1052 352.131 13.4355 351.813 13.7241L353.159 15.2039C353.897 14.5325 354.278 13.6628 354.278 12.664H352.278ZM351.779 13.7569C351.484 14.0515 351.162 14.184 350.758 14.184V16.184C351.698 16.184 352.528 15.8365 353.193 15.1711L351.779 13.7569ZM349.606 23.6H351.91V21.6H349.606V23.6ZM350.91 22.6V55H352.91V22.6H350.91ZM351.91 54H349.606V56H351.91V54ZM350.606 55V22.6H348.606V55H350.606ZM362.645 22.6V21.6H361.645V22.6H362.645ZM364.949 22.6H365.949V21.6H364.949V22.6ZM364.949 30.088H363.949L365.875 30.4659L364.949 30.088ZM369.125 24.544L368.542 23.7316L368.532 23.7389L369.125 24.544ZM379.997 23.464H380.997V22.7909L380.374 22.5375L379.997 23.464ZM379.997 26.128L379.393 26.9247L380.997 28.1418V26.128H379.997ZM370.277 26.128L369.734 25.2883L369.723 25.2959L370.277 26.128ZM366.389 30.376L365.52 29.8824L365.515 29.8914L365.51 29.9005L366.389 30.376ZM364.949 55V56H365.949V55H364.949ZM362.645 55H361.645V56H362.645V55ZM362.645 23.6H364.949V21.6H362.645V23.6ZM363.949 22.6V30.088H365.949V22.6H363.949ZM365.875 30.4659C366.774 28.263 368.06 26.5711 369.719 25.3491L368.532 23.7389C366.543 25.2049 365.044 27.209 364.024 29.7101L365.875 30.4659ZM369.709 25.3563C371.407 24.137 373.314 23.528 375.461 23.528V21.528C372.905 21.528 370.588 22.263 368.542 23.7317L369.709 25.3563ZM375.461 23.528C376.806 23.528 378.191 23.8095 379.621 24.3905L380.374 22.5375C378.732 21.8705 377.092 21.528 375.461 21.528V23.528ZM378.997 23.464V26.128H380.997V23.464H378.997ZM380.602 25.3313C379.038 24.145 377.266 23.544 375.317 23.544V25.544C376.825 25.544 378.173 25.999 379.393 26.9247L380.602 25.3313ZM375.317 23.544C373.373 23.544 371.507 24.1412 369.734 25.2884L370.821 26.9676C372.312 26.0028 373.806 25.544 375.317 25.544V23.544ZM369.723 25.2959C367.999 26.4448 366.599 27.9806 365.52 29.8824L367.259 30.8696C368.196 29.2194 369.387 27.9232 370.832 26.96L369.723 25.2959ZM365.51 29.9005C364.471 31.8223 363.949 33.8817 363.949 36.064H365.949C365.949 34.2143 366.388 32.4817 367.269 30.8515L365.51 29.9005ZM363.949 36.064V55H365.949V36.064H363.949ZM364.949 54H362.645V56H364.949V54ZM363.645 55V22.6H361.645V55H363.645ZM386.716 14.464L386.009 15.1711L386.026 15.1879L386.043 15.2039L386.716 14.464ZM386.716 10.936L386.043 10.1961L386.026 10.2121L386.009 10.2289L386.716 10.936ZM390.244 10.936L389.537 11.6431L389.554 11.6599L389.571 11.6759L390.244 10.936ZM390.244 14.464L389.571 13.7241L389.554 13.7401L389.537 13.7569L390.244 14.464ZM387.364 22.6V21.6H386.364V22.6H387.364ZM389.668 22.6H390.668V21.6H389.668V22.6ZM389.668 55V56H390.668V55H389.668ZM387.364 55H386.364V56H387.364V55ZM388.516 14.184C388.109 14.184 387.745 14.048 387.389 13.7241L386.043 15.2039C386.743 15.84 387.579 16.184 388.516 16.184V14.184ZM387.423 13.7569C387.143 13.4767 386.996 13.1366 386.996 12.664H384.996C384.996 13.6314 385.329 14.4913 386.009 15.1711L387.423 13.7569ZM386.996 12.664C386.996 12.2602 387.128 11.9377 387.423 11.6431L386.009 10.2289C385.343 10.8943 384.996 11.7238 384.996 12.664H386.996ZM387.389 11.6759C387.745 11.352 388.109 11.216 388.516 11.216V9.216C387.579 9.216 386.743 9.56004 386.043 10.1961L387.389 11.6759ZM388.516 11.216C388.92 11.216 389.242 11.3485 389.537 11.6431L390.951 10.2289C390.286 9.56349 389.456 9.216 388.516 9.216V11.216ZM389.571 11.6759C389.905 11.9796 390.036 12.2928 390.036 12.664H392.036C392.036 11.6912 391.638 10.8524 390.917 10.1961L389.571 11.6759ZM390.036 12.664C390.036 13.1052 389.889 13.4355 389.571 13.7241L390.917 15.2039C391.655 14.5325 392.036 13.6628 392.036 12.664H390.036ZM389.537 13.7569C389.242 14.0515 388.92 14.184 388.516 14.184V16.184C389.456 16.184 390.286 15.8365 390.951 15.1711L389.537 13.7569ZM387.364 23.6H389.668V21.6H387.364V23.6ZM388.668 22.6V55H390.668V22.6H388.668ZM389.668 54H387.364V56H389.668V54ZM388.364 55V22.6H386.364V55H388.364Z" fill="black"/>
</svg>
